HIERARCHY
ROOT WRIST
{
	OFFSET 0.000000 0.000000 0.000000
	CHANNELS 6 Xposition Yposition Zposition Yrotation Xrotation Zrotation
	JOINT THUMB_CMC_FE
	{
		OFFSET 0.225143 0.117753 -0.062308
		CHANNELS 3 Yrotation Xrotation Zrotation
		JOINT THUMB_CMC_AA
		{
			OFFSET 0.212856 -0.150507 0.098851
			CHANNELS 3 Yrotation Xrotation Zrotation
			JOINT THUMB_MCP_FE
			{
				OFFSET -0.322503 -0.167445 -0.031436
				CHANNELS 3 Yrotation Xrotation Zrotation
				JOINT THUMB_IP_FE
				{
					OFFSET 0.295233 -0.236404 0.025845
					CHANNELS 3 Yrotation Xrotation Zrotation
					End Site
					{
						OFFSET 0.000000 0.000000 0.000000
					}
				}
			}
		}
	}
	JOINT INDEX_MCP
	{
		OFFSET 1.076913 0.264198 -0.014768
		CHANNELS 3 Yrotation Xrotation Zrotation
		JOINT INDEX_PIP_FE
		{
			OFFSET 0.425053 0.013289 0.013619
			CHANNELS 3 Yrotation Xrotation Zrotation
			JOINT INDEX_DIP_FE
			{
				OFFSET 0.271505 -0.024898 0.000550
				CHANNELS 3 Yrotation Xrotation Zrotation
				End Site
				{
					OFFSET 0.000000 0.000000 0.000000
				}
			}
		}
	}
	JOINT MIDDLE_MCP
	{
		OFFSET 1.072991 0.019362 0.038780
		CHANNELS 3 Yrotation Xrotation Zrotation
		JOINT MIDDLE_PIP_FE
		{
			OFFSET 0.480704 0.002618 0.028696
			CHANNELS 3 Yrotation Xrotation Zrotation
			JOINT MIDDLE_DIP_FE
			{
				OFFSET 0.307486 -0.031129 -0.000643
				CHANNELS 3 Yrotation Xrotation Zrotation
				End Site
				{
					OFFSET 0.000000 0.000000 0.000000
				}
			}
		}
	}
	JOINT RING_MCP
	{
		OFFSET 0.994992 -0.195930 -0.005938
		CHANNELS 3 Yrotation Xrotation Zrotation
		JOINT RING_PIP_FE
		{
			OFFSET 0.436995 0.003792 0.019994
			CHANNELS 3 Yrotation Xrotation Zrotation
			JOINT RING_DIP_FE
			{
				OFFSET 0.295558 -0.038341 -0.006642
				CHANNELS 3 Yrotation Xrotation Zrotation
				End Site
				{
					OFFSET 0.000000 0.000000 0.000000
				}
			}
		}
	}
	JOINT PINKY_MCP
	{
		OFFSET 0.873858 -0.393246 -0.086282
		CHANNELS 3 Yrotation Xrotation Zrotation
		JOINT PINKY_PIP_FE
		{
			OFFSET 0.343972 -0.016492 0.013445
			CHANNELS 3 Yrotation Xrotation Zrotation
			JOINT PINKY_DIP_FE
			{
				OFFSET 0.224713 -0.036309 -0.010265
				CHANNELS 3 Yrotation Xrotation Zrotation
				End Site
				{
					OFFSET 0.000000 0.000000 0.000000
				}
			}
		}
	}
}
MOTION
Frames: 17
Frame Time: 0.008333334
3.907938 3.222365 6.870601 84.644520 -67.015320 -4.433655 61.461180 4.834470 68.751210 119.352900 -30.976900 6.719372 -112.863900 -65.843230 -59.198490 4.562085 -8.459839 -17.966800 -146.540000 2.758101 176.990900 -41.978120 -86.125610 46.566040 -2.052612 1.704997 -29.802640 -175.221300 -1.234924 -169.657700 -39.240360 -88.411440 28.271780 -6.002533 4.395438 3.164553 161.553300 -0.769104 -165.797000 -31.479430 -85.617830 -8.111877 0.199309 0.562929 4.968526 156.802400 -4.777710 -158.914200 -48.977540 -83.530610 28.739950 5.539796 0.809175 -5.721954 
3.907568 3.221368 6.871274 84.617400 -66.986050 -4.460754 61.461190 4.834475 68.647860 119.352900 -30.976930 6.661723 -112.863900 -65.843230 -58.940120 4.562087 -8.459839 -18.159390 -146.541000 2.758129 176.991400 -41.978450 -86.125550 46.566550 -2.052612 1.705016 -29.802640 -175.258900 -1.231232 -169.636100 -39.240540 -88.411190 28.038810 -6.002502 4.395448 3.109445 161.553300 -0.769104 -165.876500 -31.479430 -85.617800 -8.231598 0.199315 0.562918 4.968517 156.791400 -4.773346 -159.073400 -48.977510 -83.530640 28.824660 5.539799 0.809173 -5.787567 
3.906909 3.220186 6.871559 84.485550 -66.936860 -4.368317 61.461190 4.834476 68.633590 119.352900 -30.976930 6.687412 -112.863900 -65.843230 -58.878330 4.562107 -8.459839 -18.354370 -146.540700 2.758118 176.991300 -41.978360 -86.125550 46.566430 -2.052612 1.705006 -29.802640 -175.315300 -1.225769 -169.613200 -39.240480 -88.411190 27.959850 -6.002533 4.395440 2.924592 161.553300 -0.769104 -165.852900 -31.479340 -85.617830 -8.283508 0.199285 0.562919 4.968528 156.781700 -4.769440 -159.115300 -48.977540 -83.530610 28.954000 5.539793 0.809173 -6.222870 
3.906092 3.220057 6.871751 84.442480 -66.915470 -4.377777 61.461190 4.834482 68.660950 119.352900 -30.976930 6.707661 -112.863900 -65.843230 -58.756100 4.562072 -8.459839 -18.807250 -146.540300 2.758109 176.990900 -41.978090 -86.125700 46.566170 -2.052643 1.705000 -29.802610 -175.416100 -1.215973 -169.612200 -39.240810 -88.411320 27.869840 -6.002502 4.395456 2.917147 161.553300 -0.769104 -165.846500 -31.479490 -85.617800 -8.236877 0.199308 0.562926 4.968524 156.716800 -4.743530 -159.033300 -48.977630 -83.530610 28.694880 5.539796 0.809172 -6.295532 
3.904989 3.219935 6.871733 84.292560 -66.826110 -4.275604 61.461190 4.834465 68.704590 119.352900 -30.976930 6.785223 -112.864000 -65.843260 -58.783720 4.562118 -8.459839 -18.952060 -146.540200 2.758109 176.991100 -41.978270 -86.125610 46.566400 -2.052643 1.705000 -29.802640 -175.417400 -1.215851 -169.586300 -39.240450 -88.411440 27.782740 -6.002533 4.395449 2.890456 161.553300 -0.769104 -165.771700 -31.479580 -85.617860 -8.279510 0.199301 0.562924 4.968519 156.594800 -4.694702 -158.949400 -48.977540 -83.530640 28.305720 5.539804 0.809172 -5.828247 
3.904882 3.220783 6.871934 84.318890 -66.817260 -4.297211 61.461190 4.834463 68.596680 119.352900 -30.976930 6.795108 -112.864000 -65.843230 -58.510350 4.562096 -8.459839 -19.378810 -146.540200 2.758112 176.991900 -41.978180 -86.125610 46.566360 -2.052612 1.705000 -29.802640 -175.410400 -1.216553 -169.565900 -39.240910 -88.411320 27.764370 -6.002533 4.395458 2.765047 161.553300 -0.769104 -165.756600 -31.479250 -85.617740 -8.371094 0.199298 0.562947 4.968530 156.667600 -4.723846 -158.971800 -48.977450 -83.530610 28.417330 5.539799 0.809176 -6.047729 
3.903435 3.221553 6.871713 84.251880 -66.772370 -4.280945 61.461190 4.834470 68.624370 119.352900 -30.976960 6.804823 -112.863900 -65.843230 -58.525240 4.562076 -8.459839 -19.610690 -146.540200 2.758111 176.991900 -41.978090 -86.125610 46.566290 -2.052612 1.704997 -29.802640 -175.379500 -1.219543 -169.552200 -39.240420 -88.411440 27.564810 -6.002533 4.395458 2.972153 161.553300 -0.769104 -165.764400 -31.479490 -85.617860 -8.517517 0.199316 0.562929 4.968524 156.682600 -4.729828 -158.934400 -48.977480 -83.530580 28.220430 5.539813 0.809165 -5.604523 
3.902616 3.223340 6.871397 84.354270 -66.794860 -4.392151 61.461200 4.834473 68.604900 119.352900 -30.976930 6.662098 -112.863900 -65.843230 -58.585080 4.562093 -8.459839 -19.275760 -146.541400 2.758149 176.993200 -41.978210 -86.125610 46.566640 -2.052643 1.705017 -29.802640 -175.479400 -1.209808 -169.516300 -39.240630 -88.411320 27.000750 -6.002533 4.395452 3.940773 161.553300 -0.769104 -165.762500 -31.479580 -85.617800 -8.665558 0.199297 0.562923 4.968524 156.776900 -4.767548 -158.956900 -48.977360 -83.530580 28.366650 5.539801 0.809178 -5.931244 
3.901607 3.224576 6.870784 84.332640 -66.821410 -4.394867 61.461200 4.834468 68.722200 119.352900 -30.976960 6.881429 -112.863900 -65.843230 -58.848270 4.562098 -8.459839 -19.569920 -146.541100 2.758131 176.993500 -41.978390 -86.125670 46.566750 -2.052612 1.705007 -29.802640 -175.497700 -1.208038 -169.522100 -39.240200 -88.411320 26.682940 -6.002502 4.395444 4.258794 161.553300 -0.769104 -165.808200 -31.479370 -85.617740 -8.936768 0.199306 0.562915 4.968526 156.836800 -4.791473 -158.972700 -48.977570 -83.530610 28.394720 5.539802 0.809182 -5.989441 
3.900563 3.225777 6.870593 84.373500 -66.895450 -4.441895 61.461190 4.834490 68.676730 119.352900 -30.976930 6.716100 -112.863900 -65.843200 -58.670750 4.562075 -8.459839 -19.870640 -146.542100 2.758168 176.993900 -41.978420 -86.125610 46.566850 -2.052643 1.705007 -29.802640 -175.474500 -1.210297 -169.499200 -39.240810 -88.411320 26.896200 -6.002502 4.395445 4.395590 161.553300 -0.769104 -165.833800 -31.479550 -85.617800 -8.664459 0.199306 0.562925 4.968521 156.820000 -4.784760 -158.993700 -48.977600 -83.530580 28.362540 5.539800 0.809185 -5.838623 
3.898340 3.226474 6.868985 84.386150 -67.186190 -4.530914 61.461190 4.834465 68.977210 119.352900 -30.976930 6.606482 -112.864000 -65.843200 -58.868320 4.562089 -8.459839 -19.801570 -146.559600 2.758816 177.227600 -41.978150 -86.125550 46.980790 -2.052612 1.705001 -30.493930 -175.637700 -1.194397 -169.636800 -39.240690 -88.411190 26.802690 -6.002502 4.395463 4.989908 161.553300 -0.769104 -165.848600 -31.479400 -85.617830 -8.712036 0.199319 0.562937 4.968523 157.031600 -4.869293 -159.098000 -48.977630 -83.530640 28.823110 5.539819 0.809185 -6.190887 
3.895978 3.227069 6.867928 84.027020 -67.139980 -4.217499 61.461190 4.834478 68.914600 119.352900 -30.976930 6.809876 -112.864000 -65.843200 -58.941410 4.562083 -8.459839 -19.717440 -146.179700 2.744918 177.412000 -41.978330 -86.125610 47.260600 -2.052612 1.705001 -30.136660 -175.352100 -1.222198 -169.620700 -39.240690 -88.411320 27.174470 -6.002502 4.395469 4.820871 161.553300 -0.769104 -165.897900 -31.479580 -85.617830 -8.603668 0.199303 0.562911 4.968524 156.936100 -4.831146 -159.059000 -48.977510 -83.530610 28.320230 5.539809 0.809185 -6.305634 
3.895831 3.229375 6.867746 84.108460 -67.117430 -4.166687 61.461190 4.834478 68.619520 119.352900 -30.976960 6.853593 -112.863900 -65.843230 -58.984070 4.562093 -8.459839 -19.798340 -146.171200 2.744602 177.410900 -41.978520 -86.125670 47.257860 -2.052612 1.705005 -30.136690 -175.331600 -1.224182 -169.426600 -39.241030 -88.411560 27.589910 -6.002502 4.395440 4.882219 161.553300 -0.769104 -165.726400 -31.479430 -85.617830 -8.415802 0.199326 0.562936 4.968518 156.676000 -4.727203 -158.833800 -48.977540 -83.530610 28.278700 5.539801 0.809178 -6.650024 
3.893193 3.232240 6.866125 84.176490 -67.204590 -4.309601 61.461190 4.834463 68.740690 119.352900 -30.976930 6.725671 -112.864000 -65.843200 -59.397130 4.562087 -8.459839 -19.740050 -146.171000 2.744615 177.412300 -41.978180 -86.125610 47.257740 -2.052612 1.704994 -30.136690 -175.545400 -1.203400 -169.519000 -39.241000 -88.411190 26.921390 -6.002502 4.395449 5.122236 161.553300 -0.769104 -165.915500 -31.479400 -85.617800 -8.319519 0.199302 0.562934 4.968520 156.771300 -4.765289 -159.024700 -48.977540 -83.530640 28.578510 5.539823 0.809185 -6.069427 
3.892000 3.234777 6.864932 84.273970 -67.375310 -4.360626 61.461180 4.834476 68.766520 119.352900 -30.976930 6.413618 -112.864000 -65.843260 -59.946590 4.562092 -8.459839 -19.192600 -146.172900 2.744679 177.413500 -41.978120 -86.125610 47.257970 -2.052612 1.704995 -30.136660 -175.602100 -1.197876 -169.547700 -39.240970 -88.411320 26.702220 -6.002502 4.395458 5.204799 161.553300 -0.769104 -165.936400 -31.479550 -85.617800 -8.291534 0.199317 0.562931 4.968523 156.858200 -4.800018 -159.074700 -48.977540 -83.530580 28.552880 5.539808 0.809189 -5.462006 
3.889483 3.236993 6.862513 84.491600 -67.769440 -4.614655 61.461190 4.834461 69.432460 119.352900 -30.976930 5.860874 -112.864000 -65.843200 -61.279690 4.562086 -8.459839 -16.922120 -146.495600 2.756492 177.832900 -41.978240 -86.125700 47.497680 -2.052612 1.704982 -29.965880 -175.955400 -1.163452 -169.806600 -39.240420 -88.411440 26.013680 -6.002533 4.395462 5.204804 161.553300 -0.769104 -166.170300 -31.479640 -85.617830 -8.374756 0.199319 0.562941 4.968517 157.149300 -4.916260 -159.482900 -48.977600 -83.530640 29.219150 5.539813 0.809171 -5.972595 
3.886590 3.239390 6.860258 84.421420 -67.870670 -4.543304 61.461190 4.834460 69.941570 119.352900 -30.976900 5.233407 -112.864000 -65.843260 -62.524750 4.562089 -8.459839 -15.535030 -146.762400 2.766173 177.995100 -41.978300 -86.125610 46.922160 -2.052643 1.705012 -30.387080 -175.909500 -1.167938 -169.837400 -39.240810 -88.411440 25.820460 -6.002502 4.395442 5.204800 161.553300 -0.769104 -166.355600 -31.479370 -85.617800 -8.159515 0.199285 0.562926 4.968524 157.201800 -4.937225 -159.676800 -48.977420 -83.530610 29.356210 5.539809 0.809181 -5.822083 
